<?xml version="1.0" standalone="no"?><!DOCTYPE svg PUBLIC "-//W3C//DTD SVG 1.1//EN" "http://www.w3.org/Graphics/SVG/1.1/DTD/svg11.dtd"><svg t="1647048347938" class="icon" viewBox="0 0 1024 1024" version="1.1" xmlns="http://www.w3.org/2000/svg" p-id="7885" xmlns:xlink="http://www.w3.org/1999/xlink" width="200" height="200"><defs><style type="text/css"></style></defs><path d="M815.264 496.576h-79.136v-171.424a13.152 13.152 0 0 0-13.152-13.184h-26.368a13.184 13.184 0 0 0-13.184 13.184v171.424H182.368a105.472 105.472 0 0 0-105.472 105.472v210.976a105.472 105.472 0 0 0 105.472 105.472h632.864a105.504 105.504 0 0 0 105.504-105.472v-210.976a105.44 105.44 0 0 0-105.472-105.472z m52.736 316.416c0 29.12-23.616 52.736-52.736 52.736H182.368c-29.12 0-52.736-23.616-52.736-52.736v-210.976c0-29.12 23.616-52.704 52.736-52.704h632.864c29.12 0 52.736 23.584 52.736 52.704v210.976h0.032z" p-id="7886"></path><path d="M240.736 707.488a52.736 52.736 0 1 0 105.472 0 52.736 52.736 0 0 0-105.472 0zM425.344 707.488a52.736 52.736 0 1 0 105.472 0 52.736 52.736 0 0 0-105.472 0zM709.792 158.272a184.64 184.64 0 0 1 184.608 184.608h52.736a237.344 237.344 0 0 0-474.688 0h52.736a184.64 184.64 0 0 1 184.608-184.608z" p-id="7887"></path><path d="M709.792 211.008a131.84 131.84 0 0 0-131.84 131.872h52.704a79.104 79.104 0 1 1 158.24 0h52.736a131.84 131.84 0 0 0-131.84-131.872z" p-id="7888"></path></svg>