<?xml version="1.0" standalone="no"?><!DOCTYPE svg PUBLIC "-//W3C//DTD SVG 1.1//EN" "http://www.w3.org/Graphics/SVG/1.1/DTD/svg11.dtd"><svg t="1672222921915" class="icon" viewBox="0 0 1024 1024" version="1.1" xmlns="http://www.w3.org/2000/svg" p-id="3084" xmlns:xlink="http://www.w3.org/1999/xlink" width="200" height="200"><path d="M690.346667 2.773333a23.04 23.04 0 0 1 25.173333 21.333334V104.32h101.973333a102.186667 102.186667 0 0 1 102.186667 101.973333v101.973334h78.72a23.466667 23.466667 0 0 1 23.04 23.68 4.693333 4.693333 0 0 1 0 1.706666 23.04 23.04 0 0 1-21.333333 25.386667h-80.426667v128h78.72a25.6 25.6 0 0 1 0 51.2h-78.72v128h78.72a23.466667 23.466667 0 0 1 23.04 23.68 5.973333 5.973333 0 0 1 0 1.92 23.04 23.04 0 0 1-21.333333 25.173333h-80.426667v101.973334a102.186667 102.186667 0 0 1-101.973333 101.973333h-101.973334v78.72a23.466667 23.466667 0 0 1-23.68 23.04h-1.706666a23.04 23.04 0 0 1-25.386667-21.333333v-81.706667h-128v78.72a25.6 25.6 0 1 1-51.2 0v-78.72h-128v78.72a23.466667 23.466667 0 0 1-23.68 23.04h0.213333a23.04 23.04 0 0 1-25.173333-21.333333v-80.426667H206.293333a102.186667 102.186667 0 0 1-101.973333-101.973333v-101.973334H25.6a23.466667 23.466667 0 0 1-23.04-23.68 4.693333 4.693333 0 0 1 0-1.706666 23.04 23.04 0 0 1 21.333333-25.386667h80.426667v-128H25.6a25.6 25.6 0 0 1 0-51.2h78.72v-128H25.6a23.466667 23.466667 0 0 1-23.04-22.186667 5.973333 5.973333 0 0 1 0-1.92 23.04 23.04 0 0 1 21.333333-25.173333h80.426667V206.293333a102.186667 102.186667 0 0 1 101.973333-101.973333h101.973334V25.6A23.466667 23.466667 0 0 1 331.946667 2.56h2.346666a23.04 23.04 0 0 1 25.386667 21.333333v80.426667h128V25.6a25.6 25.6 0 1 1 51.2 0v78.72h128V25.6A23.466667 23.466667 0 0 1 688.426667 2.56z m128 152.746667H206.293333a51.2 51.2 0 0 0-50.773333 50.773333v611.413334a51.2 51.2 0 0 0 50.773333 49.92h611.413334a51.2 51.2 0 0 0 49.92-49.92V206.293333a51.2 51.2 0 0 0-49.92-50.773333zM456.32 386.986667v25.6h-104.746667l-5.12 61.226666a77.866667 77.866667 0 0 1 33.706667-7.68 76.373333 76.373333 0 1 1-71.893333 102.826667h27.946666a51.2 51.2 0 1 0 43.946667-76.373333 52.053333 52.053333 0 0 0-38.186667 15.36l-25.173333-2.986667 9.813333-117.76z m161.066667-2.133334a114.346667 114.346667 0 0 1 96.64 53.12h-33.066667a90.88 90.88 0 0 0-64-26.453333 89.386667 89.386667 0 0 0 0 178.346667 87.68 87.68 0 0 0 68.48-32h30.933333a114.773333 114.773333 0 1 1-99.413333-170.666667z m99.413333 114.56v56.96h-30.506667v-31.786666h-59.733333v-25.173334z" p-id="3085"></path></svg>