<?xml version="1.0" standalone="no"?><!DOCTYPE svg PUBLIC "-//W3C//DTD SVG 1.1//EN" "http://www.w3.org/Graphics/SVG/1.1/DTD/svg11.dtd"><svg t="1647047948449" class="icon" viewBox="0 0 1144 1024" version="1.1" xmlns="http://www.w3.org/2000/svg" p-id="3729" xmlns:xlink="http://www.w3.org/1999/xlink" width="223.4375" height="200"><defs><style type="text/css"></style></defs><path d="M1056.457512 565.515518C1056.433702 572.348926 1054.005104 578.634709 1049.862202 582.753802 1048.076468 584.515726 1045.195484 586.587177 1042.028783 586.587177L1041.981163 586.587177 1005.028378 585.872883C987.909144 584.06334 971.456583 594.634884 966.718436 611.754119 947.146793 682.850134 905.265383 747.636556 845.645684 799.137119 845.00282 799.684744 844.526624 800.351418 843.93138 800.922853 843.812331 801.041902 843.693282 801.18476 843.574233 801.303809 842.240885 802.684777 840.978967 804.089554 839.883717 805.61338 839.359901 806.351483 838.907515 807.161016 838.43132 807.946739 837.812265 809.018179 837.145591 810.06581 836.621776 811.18487 836.097961 812.303929 835.717004 813.494419 835.312238 814.684908 834.978901 815.661109 834.621754 816.6135 834.359847 817.613511 834.097939 818.732571 833.95508 819.89925 833.764602 821.08974 833.597934 822.280229 833.431265 823.470718 833.383645 824.685017 833.359836 825.042164 833.264597 825.375501 833.264597 825.756457L832.002678 936.019567C832.002678 940.06723 828.693118 943.4006 824.621645 943.4006L750.382738 943.4006C746.311265 943.4006 742.977896 940.06723 742.977896 936.019567L742.977896 920.30511C742.977896 900.590609 726.977721 884.590434 707.26322 884.590434 704.025089 884.590434 700.929817 885.161868 697.953594 885.995211 694.144029 885.923782 690.286844 886.304738 686.453468 887.542847 594.476273 916.94793 491.332288 918.400327 398.236033 891.5667 392.688353 887.995233 386.116853 885.852352 379.021537 885.852352 359.307036 885.852352 343.306861 901.852527 343.306861 921.567028L343.306861 936.019567C343.306861 940.06723 339.973491 943.4006 335.902018 943.4006L261.663112 943.4006C257.591639 943.4006 254.305889 940.06723 254.305889 935.471942L253.02016 850.566252C252.972541 848.494801 252.686823 846.518589 252.329677 844.542377 254.472557 832.08986 250.091557 818.89924 239.496203 810.494386 145.852322 736.16024 92.137449 629.825745 92.137449 518.753102 92.137449 302.607883 291.115815 126.748819 535.713726 126.748819 589.857175 126.748819 642.810134 135.296532 693.001159 152.153859 693.215447 152.225288 693.429735 152.225288 693.644023 152.296717 694.977371 152.725294 696.334529 152.987201 697.739306 153.249109 698.763127 153.439587 699.786947 153.701495 700.810768 153.796734 701.71554 153.891973 702.620312 153.844353 703.548893 153.868163 705.04891 153.915783 706.548926 153.963402 708.048942 153.796734 708.596567 153.749114 709.120383 153.606256 709.668008 153.511016 711.501361 153.249109 713.334715 152.891962 715.096639 152.320527 715.215687 152.272908 715.358546 152.272908 715.501405 152.249098 719.763356 150.844321 758.144728 138.058467 784.645018 121.939243L859.526788 78.581626 848.407619 171.463594C847.24094 178.820817 842.78851 215.225977 858.26487 245.440592 858.312489 245.58345 858.407728 245.702499 858.455348 245.869168 859.241071 247.369184 859.836316 248.94063 860.717278 250.416837 862.169674 252.774005 863.931598 254.797837 865.764952 256.70262 865.95543 256.916908 866.00305 257.178815 866.217338 257.369294 914.003574 304.512666 948.456332 361.656147 965.861284 422.656814 969.408942 435.085521 979.194763 443.823712 990.766318 447.014223 994.433025 448.371381 998.314019 449.299962 1002.433112 449.371392L1042.076402 450.109495C1049.147908 450.157115 1056.981327 458.942925 1056.933708 471.466871L1056.457512 565.515518ZM101.94708 161.820631C103.923292 159.630131 106.232841 158.463451 108.5662 158.463451L108.61382 158.463451C110.828129 158.487261 112.92339 159.606321 114.804363 161.511104 117.161532 163.844463 118.51869 167.058784 118.637739 171.177876 118.875836 177.916045 115.994853 183.98754 113.256727 186.773285 111.256706 188.820926 108.423341 190.035225 106.637607 189.678078 106.137602 189.654269 105.685216 189.344741 105.185211 189.225692L101.780412 185.344698C96.256542 179.058915 96.327971 168.058794 101.94708 161.820631L101.94708 161.820631ZM132.78075 230.630907C132.328364 231.130912 131.899788 231.654728 131.447402 232.178543 131.185495 232.035684 130.852158 231.964255 130.59025 231.845206 131.352163 231.488059 132.042647 231.011863 132.78075 230.630907L132.78075 230.630907ZM1043.004984 378.680143 1026.600043 378.370616C1004.909329 317.036612 968.813697 259.96456 921.194129 211.58308 918.122667 204.416335 917.81314 190.344752 919.122678 181.297034L932.527586 69.843435C932.694255 68.414848 932.789494 67.010071 932.789494 65.581484 932.789494 35.247819 914.836917 14.985693 899.479606 6.890366 874.78886-6.157395 846.955222 1.937931 829.907417 13.199959L748.192238 60.51C735.358765 68.295799 716.096649 76.105409 703.286986 80.819746 649.429254 64.129087 593.190544 55.319467 535.713726 55.319467 386.783527 55.319467 252.496345 112.558188 158.376268 203.79728 163.614421 193.392405 166.614453 181.630371 166.233497 169.67786 165.781111 155.249131 160.590578 142.177559 151.876197 131.772684 151.59048 131.415537 151.51905 130.939341 151.185713 130.582194 150.44761 129.725042 149.495219 129.082178 148.685686 128.272645 147.804724 127.391683 147.13805 126.344053 146.209469 125.53452 145.828512 125.177373 145.328507 125.105944 144.92374 124.772607 134.733153 116.058226 122.090157 110.939123 108.923347 110.843883L108.59001 110.843883C92.804123 110.843883 77.518242 117.79634 66.589551 129.93933 61.279969 135.796537 57.327545 142.510896 54.58942 149.630022 51.684626 144.701396 48.946501 139.248956 46.82743 132.534597 42.898816 120.01065 29.470098 113.010574 16.969961 117.010618 4.398395 120.963042-2.554062 134.34414 1.422172 146.868087 16.088999 193.344785 47.589343 212.487851 64.541909 219.749836 70.589595 237.130978 82.399247 257.226435 101.423265 270.155148 50.422707 342.060695 20.708097 427.323532 20.708097 518.753102 20.708097 646.230686 79.232546 767.827253 181.638427 855.161541L182.876536 936.019567C182.876536 979.472423 218.210255 1014.829952 261.663112 1014.829952L335.902018 1014.829952C368.116656 1014.829952 395.807435 995.353549 408.021854 967.61515 449.617547 977.139064 492.403729 982.210548 535.713726 982.210548 583.880919 982.210548 631.214769 975.972385 677.000984 964.210351 688.405871 993.734484 716.882372 1014.829952 750.382738 1014.829952L824.621645 1014.829952C868.074501 1014.829952 903.43203 979.472423 903.43203 936.424333L904.52728 841.899491C960.980278 789.732254 1002.933117 726.826805 1027.028619 657.754621L1041.076391 658.016529 1041.600207 658.016529C1063.362349 658.016529 1084.100671 649.349768 1100.077036 633.540071 1117.624847 616.182739 1127.767815 591.515802 1127.886864 565.872665L1128.36306 471.824018C1128.601157 420.799651 1090.124546 379.01348 1043.004984 378.680143L1043.004984 378.680143ZM787.118854 340.451154C746.713651 340.451154 713.951388 373.213417 713.951388 413.61862 713.951388 454.023824 746.713651 486.786086 787.118854 486.786086 827.524058 486.786086 860.28632 454.023824 860.28632 413.61862 860.28632 373.213417 827.524058 340.451154 787.118854 340.451154" p-id="3730"></path></svg>