<?xml version="1.0" standalone="no"?><!DOCTYPE svg PUBLIC "-//W3C//DTD SVG 1.1//EN" "http://www.w3.org/Graphics/SVG/1.1/DTD/svg11.dtd"><svg t="1647807809059" class="icon" viewBox="0 0 1024 1024" version="1.1" xmlns="http://www.w3.org/2000/svg" p-id="5265" xmlns:xlink="http://www.w3.org/1999/xlink" width="200" height="200"><defs><style type="text/css">@font-face { font-family: feedback-iconfont; src: url("//at.alicdn.com/t/font_1031158_u69w8yhxdu.woff2?t=1630033759944") format("woff2"), url("//at.alicdn.com/t/font_1031158_u69w8yhxdu.woff?t=1630033759944") format("woff"), url("//at.alicdn.com/t/font_1031158_u69w8yhxdu.ttf?t=1630033759944") format("truetype"); }
</style></defs><path d="M822.5 854c29.7-38.8 45.8-86.1 45.8-135.8 0-59.8-23.3-116.1-65.6-158.4-42.3-42.3-98.6-65.6-158.4-65.6-59.8 0-116.1 23.3-158.4 65.6-42.3 42.3-65.6 98.6-65.6 158.4 0 59.8 23.3 116.1 65.6 158.4 42.3 42.3 98.6 65.6 158.4 65.6 49.7 0 96.9-16.1 135.8-45.8l118.8 118.8c11.7 11.7 30.8 11.7 42.4 0 11.7-11.7 11.7-30.8 0-42.4L822.5 854z m-62.3-19.8c-63.9 63.9-168 63.9-231.9 0s-63.9-168 0-231.9 168-63.9 231.9 0 64 168 0 231.9zM212 305.8h580c16.5 0 30-13.5 30-30s-13.5-30-30-30H212c-16.5 0-30 13.5-30 30s13.5 30 30 30zM438 527.8c0-16.5-13.5-30-30-30H212c-16.5 0-30 13.5-30 30s13.5 30 30 30h196c16.5 0 30-13.5 30-30zM212 749.8c-16.5 0-30 13.5-30 30s13.5 30 30 30h132c16.5 0 30-13.5 30-30s-13.5-30-30-30H212z" fill="" p-id="5266"></path><path d="M866 0H158c-51.9 0-94 42.1-94 94v836c0 51.9 42.1 94 94 94h388c16.6 0 30-13.4 30-30s-13.4-30-30-30H158c-18.8 0-34-15.2-34-34V94c0-18.8 15.2-34 34-34h708c18.8 0 34 15.2 34 34v516c0 16.6 13.4 30 30 30s30-13.4 30-30V94c0-51.9-42.1-94-94-94z" fill="" p-id="5267"></path></svg>