<?xml version="1.0" standalone="no"?><!DOCTYPE svg PUBLIC "-//W3C//DTD SVG 1.1//EN" "http://www.w3.org/Graphics/SVG/1.1/DTD/svg11.dtd"><svg t="1647048054879" class="icon" viewBox="0 0 1024 1024" version="1.1" xmlns="http://www.w3.org/2000/svg" p-id="5280" xmlns:xlink="http://www.w3.org/1999/xlink" width="200" height="200"><defs><style type="text/css"></style></defs><path d="M499.0464 710.7072a139.264 139.264 0 0 1-75.52-256 13.8752 13.8752 0 0 1 15.36 23.296 111.4624 111.4624 0 1 0 151.0912 28.7744 13.8752 13.8752 0 0 1 22.5792-16.128 139.2128 139.2128 0 0 1-113.2544 220.16zM196.5568 398.592A65.6384 65.6384 0 1 1 262.144 332.8a65.6896 65.6896 0 0 1-65.5872 65.792z m0-103.4752A37.888 37.888 0 1 0 234.3936 332.8a37.888 37.888 0 0 0-37.8368-37.6832zM665.0368 878.7456a50.4832 50.4832 0 1 1 50.432-50.432 50.4832 50.4832 0 0 1-50.432 50.432z m0-73.1648a22.7328 22.7328 0 1 0 22.6816 22.7328 22.7328 22.7328 0 0 0-22.6816-22.7328zM525.9776 421.4784a50.4832 50.4832 0 1 1 50.432-50.4832 50.5344 50.5344 0 0 1-50.432 50.4832z m0-73.216a22.7328 22.7328 0 1 0 22.7328 22.7328 22.784 22.784 0 0 0-22.7328-22.8352zM160.7168 842.1888a81.2032 81.2032 0 1 1 81.2032-81.2032 81.3056 81.3056 0 0 1-81.2032 81.2032z m0-134.7072a53.504 53.504 0 1 0 53.4528 53.504 53.5552 53.5552 0 0 0-53.4528-53.504zM869.376 676.9664a81.2032 81.2032 0 1 1 81.2032-81.2032 81.3056 81.3056 0 0 1-81.2032 81.2032z m0-134.656a53.4528 53.4528 0 1 0 53.4528 53.4528 53.504 53.504 0 0 0-53.4528-53.4528z" fill="#4D4D4D" p-id="5281"></path><path d="M389.12 518.4512a13.824 13.824 0 0 1-8.96-3.2768L222.6176 381.5936A13.8752 13.8752 0 0 1 240.64 360.3968l157.5424 133.5808a13.8752 13.8752 0 0 1-9.0624 24.4736zM221.0304 744.96a13.8752 13.8752 0 0 1-5.9904-26.2656l175.1552-88.0128a13.8752 13.8752 0 1 1 12.1856 24.6784l-175.104 88.0128a13.6704 13.6704 0 0 1-6.2464 1.5872zM648.3968 809.5744a13.8752 13.8752 0 0 1-12.288-7.424l-67.5328-129.28a13.8752 13.8752 0 1 1 24.576-12.8512L660.48 789.2992a13.8752 13.8752 0 0 1-12.288 20.48zM802.048 609.6384h-1.1264l-177.6128-14.2848a13.8752 13.8752 0 1 1 2.2528-27.648l177.6128 14.2848a13.8752 13.8752 0 0 1-1.1264 27.6992zM380.9792 212.1728a13.824 13.824 0 0 1-9.9328-23.552 216.576 216.576 0 0 1 308.224-1.6384 13.8752 13.8752 0 1 1-19.6096 19.6096 188.8768 188.8768 0 0 0-268.8 1.4336 13.824 13.824 0 0 1-9.8816 4.1472z" fill="#4D4D4D" p-id="5282"></path><path d="M420.1984 261.632a13.8752 13.8752 0 0 1-9.9328-23.552 161.0752 161.0752 0 0 1 229.7344-1.6384 13.8752 13.8752 0 0 1-19.5584 19.5584 133.4272 133.4272 0 0 0-190.3616 1.4336 13.7728 13.7728 0 0 1-9.8816 4.1984z" fill="#4D4D4D" p-id="5283"></path><path d="M459.3664 311.1424a13.8752 13.8752 0 0 1-10.24-23.4496 105.728 105.728 0 0 1 151.5008-1.792 13.8752 13.8752 0 1 1-19.6096 19.6096 78.0288 78.0288 0 0 0-111.8208 1.3312 13.9264 13.9264 0 0 1-9.8304 4.3008z" fill="#4D4D4D" p-id="5284"></path></svg>